<svg id="visual" viewBox="0 0 900 600" width="900" height="600" xmlns="http://www.w3.org/2000/svg" xmlns:xlink="http://www.w3.org/1999/xlink" version="1.1"><rect x="0" y="0" width="900" height="600" fill="#F8F8F8"></rect><g transform="translate(471.4018580885212 283.89137048244726)"><path d="M141.1 -227.8C195.3 -213.2 260 -200.3 277.3 -162.7C294.6 -125 264.5 -62.5 262.9 -0.9C261.3 60.7 288.3 121.3 271.5 159.9C254.7 198.4 194.1 214.8 141.5 234.2C89 253.5 44.5 275.7 -8 289.6C-60.5 303.5 -121 308.9 -157.7 280.4C-194.3 251.9 -207.1 189.5 -238.9 137.1C-270.6 84.7 -321.3 42.3 -325.2 -2.2C-329.1 -46.8 -286.2 -93.7 -249.9 -138.1C-213.6 -182.6 -183.8 -224.7 -143.2 -247.1C-102.7 -269.5 -51.3 -272.2 -3.9 -265.5C43.5 -258.7 87 -242.4 141.1 -227.8" fill="#1C1C25"></path></g></svg>